<svg width="155" height="228" viewBox="0 0 155 228" fill="none" xmlns="http://www.w3.org/2000/svg">
<path d="M127.165 145.368L123.565 144.696V141.336H131.149C132.237 141.336 133.677 141.272 135.469 141.144C135.853 141.112 136.333 141.08 136.909 141.048C137.485 141.016 138.157 141 138.925 141C142.413 141 145.149 141.32 147.133 141.96C149.117 142.6 150.493 143.512 151.261 144.696C152.061 145.88 152.461 147.368 152.461 149.16C152.461 151.56 151.709 153.544 150.205 155.112C148.733 156.68 146.845 157.624 144.541 157.944C147.741 157.944 150.253 158.664 152.077 160.104C153.933 161.544 154.861 163.576 154.861 166.2C154.861 169.624 153.677 172.328 151.309 174.312C148.973 176.296 144.989 177.288 139.357 177.288C138.461 177.288 137.597 177.256 136.765 177.192C135.933 177.16 135.341 177.144 134.989 177.144C133.837 177.048 132.589 177 131.245 177H123.469V173.832L127.165 173.304V145.368ZM135.277 156.744C135.853 156.808 137.149 156.84 139.165 156.84C140.925 156.84 142.221 156.248 143.053 155.064C143.885 153.848 144.301 152.152 144.301 149.976C144.301 147.96 143.853 146.488 142.957 145.56C142.061 144.632 140.605 144.168 138.589 144.168C138.109 144.168 137.549 144.2 136.909 144.264C136.269 144.296 135.725 144.344 135.277 144.408V156.744ZM135.277 173.592C135.917 173.848 137.181 173.976 139.069 173.976C141.437 173.976 143.149 173.352 144.205 172.104C145.293 170.856 145.837 169.048 145.837 166.68C145.837 164.44 145.341 162.84 144.349 161.88C143.357 160.92 141.789 160.44 139.645 160.44C137.885 160.44 136.429 160.472 135.277 160.536V173.592Z" fill="black"/>
<path d="M96.9672 177.384C92.0072 177.384 88.2952 176.184 85.8312 173.784C83.3672 171.384 82.1352 167.624 82.1352 162.504V145.368L79.1592 144.696V141.336H94.6632V144.696L90.6312 145.416V163.176C90.6312 170.408 93.1432 174.024 98.1672 174.024C100.663 174.024 102.487 173.08 103.639 171.192C104.823 169.272 105.415 166.632 105.415 163.272V145.368L101.287 144.696V141.336H113.767V144.696L110.599 145.368V162.84C110.599 167.832 109.367 171.512 106.903 173.88C104.471 176.216 101.159 177.384 96.9672 177.384Z" fill="black"/>
<path d="M45.3372 145.368L41.7372 144.696V141.336H58.1052V144.696L53.5452 145.368V173.256L62.5692 172.776L65.6892 163.272L70.2012 163.848L68.8092 177H41.6412V173.832L45.3372 173.352V145.368Z" fill="black"/>
<path d="M18.692 177.528C13.156 177.528 8.94799 175.928 6.06799 172.728C3.18799 169.496 1.74799 165.08 1.74799 159.48C1.74799 155.704 2.51599 152.424 4.05199 149.64C5.58799 146.824 7.69999 144.68 10.388 143.208C13.076 141.704 16.116 140.952 19.508 140.952C20.852 140.952 22.148 141.032 23.396 141.192C24.644 141.32 26.148 141.512 27.908 141.768C29.284 141.992 30.228 142.12 30.74 142.152L30.164 152.856H25.028L23.396 145.512C22.692 144.744 21.22 144.36 18.98 144.36C16.516 144.36 14.564 145.592 13.124 148.056C11.716 150.488 11.012 154.072 11.012 158.808C11.012 163.416 11.7 167.112 13.076 169.896C14.484 172.68 16.516 174.072 19.172 174.072C20.484 174.072 24.356 173.256 25.028 173C25.732 172.744 30.5 171 30.5 171V175C29.572 175.064 27.86 176.008 26.516 176.424C25.236 176.776 24.02 177.048 22.868 177.24C21.748 177.432 20.356 177.528 18.692 177.528Z" fill="black"/>
<path d="M57.5 217.5L55.5 212L53 217.5H47L52.5 221L49.5 227.5L55.5 224.5L61 227.5L58 221L63 217.5H57.5Z" fill="black"/>
<path d="M100 217.5L98 212L95.5 217.5H89.5L95 221L92 227.5L98 224.5L103.5 227.5L100.5 221L105.5 217.5H100Z" fill="black"/>
<path d="M79 217.5L77 212L74.5 217.5H68.5L74 221L71 227.5L77 224.5L82.5 227.5L79.5 221L84.5 217.5H79Z" fill="black"/>
<path d="M153 205H0.5V207H153V205Z" fill="#BB2323"/>
<path d="M31 36H50.5L52.5 28.5H38V7.5H108V28.5H89.5V40C91 40 102.347 30.0783 115.5 30C135.023 30.5041 146 34 146 51.5C146 63 136.463 76.7254 115.5 102.5H143.5V117.5H83.5L85.5 123.5H150.5V95.5H130C145 77.5 152.5 63 152.5 51.5C152.5 30.5 141 22.5 115.5 22.5V0H31V36Z" fill="#2CA157"/>
<path fill-rule="evenodd" clip-rule="evenodd" d="M90.5 100.5C104.708 81.3813 114.017 70.1013 121.5 53V49.5V46.5C121 43.5 119 42.5 115.5 42.5C113 42.5 110.5 44 110.5 46.5V60H90.5V100.5ZM97 79.5V67.5H105.5L97 79.5Z" fill="#2CA157"/>
<path fill-rule="evenodd" clip-rule="evenodd" d="M0 71.335C1.2 71.735 7.5 75.835 10.5 77.835L8 81L17 86.335C17 86.335 2.5 106.835 2.5 109.335V119.335H8V117L7 116.5C6.5 116 7.5 110.335 7.5 110.335C11.6554 103.887 14.6399 101.422 21 98.835C25.4784 99.086 28.199 100.281 33.5 103.835V93.335L37 103.835L37.5 118.835H44V117.335L42.5 115.835V110.335C46.4461 105.89 48.1809 103.373 50.5 98.835L52 93.335H53.5V98.835L52 102.335C51.6707 103.295 51.7214 105.491 52 105.835C52.0193 106.071 52.9361 107.016 53.5 107.335V110.335C53.6274 111.22 54.1072 112.118 55.5 114.335H61.5V111.835L57.5 109.335L58.5 91.835H60C60 94 60 94.3819 60 97C60 98.165 61.363 99.722 63 100.5C62.9042 100.481 63.1018 100.52 63 100.5C64.2481 100.748 66.1713 101.144 67 100.335C68.2342 99.1297 68.3947 97.2005 68.5 93.335L75.5 84.835H78.5C80.2811 85.7871 81.1028 86.9697 82.5 89.335C82.6876 87.6641 82.7687 86.7161 82.5 84.835C79.6876 81.0976 77.8066 79.6884 74.9004 77.5111C74.611 77.2944 74.3116 77.07 74 76.835L67 74.335C64.7794 70.6372 63.1617 68.72 59 65.835C56.8517 65.1989 54.1484 64.6078 52 65.335C48.4545 68.0788 47.1141 70.2716 45.2868 73.2612C44.89 73.9103 44.4702 74.597 44 75.335C44.5699 72.5797 44.938 71.0402 46 68.335C40.7828 70.7653 37.3918 71.8972 32.5 77C32.1051 77.3848 32.9525 76.5714 32.5 77C31.2575 77.5356 26.3603 83.6005 25.5 86C25.3103 82.0756 30.8868 75.8883 36.5 70.835C34.4911 72.0032 32.5181 72.8765 30.6011 73.725C27.9411 74.9023 25.3892 76.0318 23 77.835L20 80.835L15 78.835L18 75.335L0 71.335ZM56.5 75.5C54 77 53.2887 78.3453 52.5 81C54.6339 79.4991 55.838 79.1679 58 79.5C59.2855 80.2605 59.6579 81.1049 60 83L62 82.5C62.0673 78.4864 62.5 76.6715 61.5 76C60.1259 75.0773 59 74.5 56.5 75.5Z" fill="black"/>
<path d="M85.5 123.5L61.5 104C69.5756 103.738 71.8262 101.708 71.5 94.5L75.5 92L85.5 123.5Z" fill="#BB2323"/>
<path d="M3.5 61L22.5 74C27.7435 70.0415 47.526 62.4031 51.5 62.5C52.2998 62.5195 57.1667 62.5 59.5 62.5C63.9653 66.0284 65.591 68.1452 68 72C68 72 70.1377 71.8892 71.5 72C74.2181 72.221 80.1098 78.228 81.5 78.5L105.5 61H66L54.5 22L43 61H3.5Z" fill="#BB2323"/>
<path d="M16.09 190.862L14.83 191.114C14.83 191.846 14.71 192.518 14.47 193.13C14.23 193.742 13.918 194.258 13.534 194.678C13.906 194.99 14.266 195.23 14.614 195.398C14.962 195.566 15.346 195.662 15.766 195.686V196.82C15.634 196.916 15.37 196.988 14.974 197.036C14.578 197.096 14.254 197.126 14.002 197.126C13.51 197.126 13.084 197.072 12.724 196.964C12.364 196.856 11.986 196.664 11.59 196.388C10.822 196.928 9.736 197.198 8.332 197.198C6.724 197.198 5.464 196.88 4.552 196.244C3.64 195.608 3.184 194.714 3.184 193.562C3.184 192.806 3.448 192.152 3.976 191.6C4.516 191.048 5.164 190.628 5.92 190.34C5.44 189.704 5.068 189.128 4.804 188.612C4.552 188.096 4.426 187.514 4.426 186.866C4.426 186.23 4.606 185.654 4.966 185.138C5.326 184.61 5.818 184.196 6.442 183.896C7.066 183.596 7.762 183.446 8.53 183.446C9.322 183.446 9.988 183.572 10.528 183.824C11.068 184.064 11.47 184.388 11.734 184.796C11.998 185.192 12.13 185.618 12.13 186.074C12.13 186.986 11.89 187.724 11.41 188.288C10.93 188.84 10.144 189.392 9.052 189.944C9.52 190.52 10.072 191.162 10.708 191.87C11.344 192.566 11.866 193.106 12.274 193.49L12.562 193.778C12.934 193.058 13.096 192.17 13.048 191.114L11.698 190.862V189.548H16.09V190.862ZM7.162 186.326C7.162 186.854 7.276 187.34 7.504 187.784C7.744 188.228 8.038 188.672 8.386 189.116C8.878 188.66 9.226 188.186 9.43 187.694C9.634 187.19 9.736 186.644 9.736 186.056C9.736 185.66 9.646 185.294 9.466 184.958C9.286 184.61 8.974 184.436 8.53 184.436C8.11 184.436 7.774 184.598 7.522 184.922C7.282 185.246 7.162 185.714 7.162 186.326ZM8.692 195.92C9.448 195.92 10.03 195.782 10.438 195.506C9.97 195.122 9.49 194.654 8.998 194.102C8.518 193.538 7.93 192.83 7.234 191.978L6.676 191.294C6.412 191.558 6.19 191.864 6.01 192.212C5.842 192.548 5.758 192.908 5.758 193.292C5.758 194.084 6.016 194.72 6.532 195.2C7.06 195.68 7.78 195.92 8.692 195.92ZM25.9532 197.198C25.2932 197.198 24.6812 197.144 24.1172 197.036C23.5652 196.928 22.9832 196.784 22.3712 196.604C21.9752 196.484 21.6872 196.418 21.5072 196.406L21.6692 193.04H23.3432L23.7932 195.344C23.9252 195.5 24.1652 195.638 24.5132 195.758C24.8732 195.878 25.2992 195.938 25.7912 195.938C26.5232 195.938 27.0692 195.776 27.4292 195.452C27.8012 195.128 27.9872 194.684 27.9872 194.12C27.9872 193.724 27.8672 193.382 27.6272 193.094C27.3992 192.794 27.0752 192.524 26.6552 192.284C26.2472 192.032 25.6832 191.744 24.9632 191.42C24.0152 190.988 23.2112 190.442 22.5512 189.782C21.9032 189.11 21.5792 188.228 21.5792 187.136C21.5792 186.464 21.7532 185.852 22.1012 185.3C22.4492 184.748 22.9772 184.304 23.6852 183.968C24.3932 183.632 25.2752 183.464 26.3312 183.464C26.9672 183.464 27.5192 183.506 27.9872 183.59C28.4672 183.674 28.9772 183.788 29.5172 183.932C29.8052 184.028 30.0272 184.082 30.1832 184.094L30.0752 187.298H28.4372L28.0232 185.084C27.9392 184.976 27.7472 184.88 27.4472 184.796C27.1592 184.7 26.8352 184.652 26.4752 184.652C25.8152 184.652 25.3172 184.808 24.9812 185.12C24.6572 185.432 24.4952 185.834 24.4952 186.326C24.4952 186.758 24.6332 187.136 24.9092 187.46C25.1852 187.784 25.5152 188.06 25.8992 188.288C26.2952 188.504 26.8952 188.81 27.6992 189.206C28.3352 189.518 28.8872 189.836 29.3552 190.16C29.8352 190.472 30.2432 190.88 30.5792 191.384C30.9152 191.888 31.0832 192.476 31.0832 193.148C31.0832 193.808 30.9212 194.444 30.5972 195.056C30.2852 195.668 29.7452 196.178 28.9772 196.586C28.2092 196.994 27.2012 197.198 25.9532 197.198ZM36.4899 184.958L34.2399 185.048L33.4839 189.062H31.7919L32.0799 183.626H43.9419L44.1759 189.062H42.5739L41.7819 185.048L39.6039 184.958V195.614L42.1059 195.812V197H34.2039V195.812L36.4899 195.614V184.958ZM46.5449 185.138L45.1409 184.886V183.626H54.9869L55.2209 186.812H53.7989L53.1689 184.994L49.6229 184.814V189.494L51.8189 189.44L52.1429 187.964H53.3849V192.482H52.1429L51.8369 190.916L49.6229 190.862V195.758L53.5649 195.506L54.6629 193.184L56.1929 193.616L55.7609 197H45.1589V195.812L46.5449 195.632V185.138ZM61.093 183.572H64.333L68.365 195.632L69.355 195.812V197H63.685V195.812L64.963 195.632L64.351 193.472H60.049L59.437 195.65L60.841 195.812V197H56.053L56.035 195.812L57.079 195.614L61.093 183.572ZM62.425 186.704L62.155 185.444L61.867 186.722L60.409 192.086H63.973L62.425 186.704ZM79.2015 197C79.0335 197 78.8235 196.784 78.5715 196.352C78.3195 195.908 77.9415 195.188 77.4375 194.192C76.6575 192.56 76.0575 191.462 75.6375 190.898L74.1795 192.572V195.632L75.6735 195.812V197H69.7335V195.812L71.1195 195.614V185.138L69.7335 184.886V183.626H75.5115V184.886L74.1795 185.138V190.736L78.5715 185.138L77.1135 184.886V183.626H82.2435V184.868L80.6595 185.12L77.4195 188.792C77.8515 189.176 78.2955 189.728 78.7515 190.448C79.2195 191.156 79.7835 192.092 80.4435 193.256C80.8875 194.036 81.2175 194.606 81.4335 194.966C81.6615 195.326 81.8415 195.542 81.9735 195.614L82.8375 195.812V197H79.2015ZM89.0316 185.12L87.7356 184.886V183.626H93.5676V184.886L92.0916 185.12V189.422H97.0236V185.138L95.6736 184.886V183.626H101.434V184.886L100.102 185.12V195.632L101.434 195.812V197H95.6736V195.812L97.0236 195.614V190.952H92.0916V195.632L93.5676 195.812V197H87.6996V195.812L89.0316 195.632V185.12ZM108.541 197.198C106.525 197.198 105.031 196.592 104.059 195.38C103.087 194.156 102.601 192.476 102.601 190.34C102.601 188.96 102.853 187.754 103.357 186.722C103.873 185.678 104.593 184.874 105.517 184.31C106.441 183.746 107.521 183.464 108.757 183.464C110.821 183.464 112.339 184.04 113.311 185.192C114.295 186.332 114.787 187.964 114.787 190.088C114.787 191.492 114.529 192.734 114.013 193.814C113.497 194.882 112.765 195.716 111.817 196.316C110.881 196.904 109.789 197.198 108.541 197.198ZM108.703 184.652C107.839 184.652 107.167 185.126 106.687 186.074C106.219 187.022 105.985 188.438 105.985 190.322C105.985 192.242 106.219 193.67 106.687 194.606C107.155 195.53 107.821 195.992 108.685 195.992C109.537 195.992 110.197 195.488 110.665 194.48C111.145 193.46 111.385 192.002 111.385 190.106C111.385 188.186 111.157 186.8 110.701 185.948C110.245 185.084 109.579 184.652 108.703 184.652ZM122.247 197.144C120.387 197.144 118.995 196.694 118.071 195.794C117.147 194.894 116.685 193.484 116.685 191.564V185.138L115.569 184.886V183.626H121.383V184.886L119.871 185.156V191.816C119.871 194.528 120.813 195.884 122.697 195.884C123.633 195.884 124.317 195.53 124.749 194.822C125.193 194.102 125.415 193.112 125.415 191.852V185.138L123.867 184.886V183.626H128.547V184.886L127.359 185.138V191.69C127.359 193.562 126.897 194.942 125.973 195.83C125.061 196.706 123.819 197.144 122.247 197.144ZM134.111 197.198C133.451 197.198 132.839 197.144 132.275 197.036C131.723 196.928 131.141 196.784 130.529 196.604C130.133 196.484 129.845 196.418 129.665 196.406L129.827 193.04H131.501L131.951 195.344C132.083 195.5 132.323 195.638 132.671 195.758C133.031 195.878 133.457 195.938 133.949 195.938C134.681 195.938 135.227 195.776 135.587 195.452C135.959 195.128 136.145 194.684 136.145 194.12C136.145 193.724 136.025 193.382 135.785 193.094C135.557 192.794 135.233 192.524 134.813 192.284C134.405 192.032 133.841 191.744 133.121 191.42C132.173 190.988 131.369 190.442 130.709 189.782C130.061 189.11 129.737 188.228 129.737 187.136C129.737 186.464 129.911 185.852 130.259 185.3C130.607 184.748 131.135 184.304 131.843 183.968C132.551 183.632 133.433 183.464 134.489 183.464C135.125 183.464 135.677 183.506 136.145 183.59C136.625 183.674 137.135 183.788 137.675 183.932C137.963 184.028 138.185 184.082 138.341 184.094L138.233 187.298H136.595L136.181 185.084C136.097 184.976 135.905 184.88 135.605 184.796C135.317 184.7 134.993 184.652 134.633 184.652C133.973 184.652 133.475 184.808 133.139 185.12C132.815 185.432 132.653 185.834 132.653 186.326C132.653 186.758 132.791 187.136 133.067 187.46C133.343 187.784 133.673 188.06 134.057 188.288C134.453 188.504 135.053 188.81 135.857 189.206C136.493 189.518 137.045 189.836 137.513 190.16C137.993 190.472 138.401 190.88 138.737 191.384C139.073 191.888 139.241 192.476 139.241 193.148C139.241 193.808 139.079 194.444 138.755 195.056C138.443 195.668 137.903 196.178 137.135 196.586C136.367 196.994 135.359 197.198 134.111 197.198ZM141.66 185.138L140.256 184.886V183.626H150.102L150.336 186.812H148.914L148.284 184.994L144.738 184.814V189.494L146.934 189.44L147.258 187.964H148.5V192.482H147.258L146.952 190.916L144.738 190.862V195.758L148.68 195.506L149.778 193.184L151.308 193.616L150.876 197H140.274V195.812L141.66 195.632V185.138Z" fill="black"/>
</svg>
